<svg xmlns="http://www.w3.org/2000/svg" width="1200" height="630" viewBox="0 0 1200 630">
  <defs>
    <linearGradient id="page" x1="0" y1="0" x2="1" y2="1">
      <stop offset="0" stop-color="#f8f4ec"/>
      <stop offset="0.56" stop-color="#eef5f2"/>
      <stop offset="1" stop-color="#fbfaf7"/>
    </linearGradient>
    <linearGradient id="drop" x1="0" y1="0" x2="1" y2="1">
      <stop offset="0" stop-color="#e9f5f2"/>
      <stop offset="1" stop-color="#f8eadb"/>
    </linearGradient>
    <filter id="shadow" x="-20%" y="-20%" width="140%" height="140%">
      <feDropShadow dx="0" dy="24" stdDeviation="28" flood-color="#101820" flood-opacity="0.14"/>
    </filter>
  </defs>
  <rect width="1200" height="630" fill="url(#page)"/>
  <circle cx="120" cy="88" r="252" fill="#1f6f8b" opacity="0.12"/>
  <circle cx="1080" cy="56" r="230" fill="#d85b4a" opacity="0.10"/>

  <rect x="66" y="70" width="1068" height="490" rx="8" fill="#ffffff" fill-opacity="0.9" stroke="#d9ded6" filter="url(#shadow)"/>

  <g transform="translate(112 118)">
    <rect width="74" height="74" rx="14" fill="#000094"/>
    <circle cx="37" cy="37" r="24" fill="#ffffff" opacity="0.15"/>
    <path d="M23 37a14 14 0 0 1 22-11" fill="none" stroke="#ffffff" stroke-width="6" stroke-linecap="round"/>
    <path d="M51 37a14 14 0 0 1-22 11" fill="none" stroke="#ffffff" stroke-width="6" stroke-linecap="round"/>
    <path d="M45 18h10v10" fill="none" stroke="#ffffff" stroke-width="6" stroke-linecap="round" stroke-linejoin="round"/>
    <path d="M29 56H19V46" fill="none" stroke="#ffffff" stroke-width="6" stroke-linecap="round" stroke-linejoin="round"/>
  </g>

  <text x="208" y="166" fill="#101820" font-family="Arial, Helvetica, sans-serif" font-size="34" font-weight="900">convertitbaby.com</text>
  <text x="112" y="246" fill="#0c8a7d" font-family="Arial, Helvetica, sans-serif" font-size="26" font-weight="900">FREE, PRIVATE, FULLY OPEN SOURCE</text>
  <text x="112" y="342" fill="#101820" font-family="Arial, Helvetica, sans-serif" font-size="78" font-weight="900">Drop files.</text>
  <text x="112" y="426" fill="#101820" font-family="Arial, Helvetica, sans-serif" font-size="78" font-weight="900">Pick outputs. Go.</text>
  <text x="112" y="492" fill="#33404d" font-family="Arial, Helvetica, sans-serif" font-size="34" font-weight="500">Browser-only file conversion. Files never upload.</text>

  <g transform="translate(834 194)">
    <rect width="210" height="236" rx="8" fill="url(#drop)" stroke="#8fa39a" stroke-width="3" stroke-dasharray="12 12"/>
    <text x="105" y="82" text-anchor="middle" fill="#101820" font-family="Arial, Helvetica, sans-serif" font-size="56" font-weight="900">100</text>
    <text x="105" y="122" text-anchor="middle" fill="#285c57" font-family="Arial, Helvetica, sans-serif" font-size="24" font-weight="900">formats</text>
    <rect x="34" y="158" width="142" height="50" rx="8" fill="#101820"/>
    <text x="105" y="191" text-anchor="middle" fill="#ffffff" font-family="Arial, Helvetica, sans-serif" font-size="22" font-weight="900">No upload</text>
  </g>
</svg>
